<?xml version="1.0" encoding="utf-8"?>
<!-- Generator: Adobe Illustrator 26.2.1, SVG Export Plug-In . SVG Version: 6.00 Build 0)  -->
<svg version="1.1" id="Pokéball" xmlns="http://www.w3.org/2000/svg" xmlns:xlink="http://www.w3.org/1999/xlink" x="0px" y="0px"
	 viewBox="0 0 512 512" style="enable-background:new 0 0 512 512;" xml:space="preserve">
<style type="text/css">
	.st0{fill:#FFFFFF;}
	.st1{fill:#DFDFDF;}
	.st2{fill:#4E13BF;}
	.st3{fill:#270072;}
</style>
<g id="Pokéball_1_">
	<g id="Colours">
		<path id="Down" class="st0" d="M256,335.3c-38.2,0-70-27-77.6-62.9h-127c9,104.4,96.6,186.3,203.2,186.3S449,376.7,457.9,272.3
			H333.5C326,308.3,294.1,335.3,256,335.3z"/>
		<path id="Shadow_Down" class="st1" d="M301.3,453.4c84.7-19.8,149-92.3,156.6-181h-50.1C402.8,352.8,360.5,421.1,301.3,453.4z"/>
		<path id="Center" class="st0" d="M302.7,256L302.7,256C302.6,256,302.6,256,302.7,256c-0.1-5.8-1.1-11.2-3-16.3
			c-6.6-17.8-23.7-30.3-43.7-30.3c-20,0-37.1,12.7-43.7,30.3c-1.9,5.1-2.9,10.6-2.9,16.3l0,0h0.1l0,0c0,5.8,1,11.2,2.9,16.3
			c6.6,17.8,23.7,30.3,43.7,30.3s37.1-12.7,43.7-30.3C301.7,267.3,302.7,261.8,302.7,256L302.7,256z"/>
		<path id="Up" class="st2" d="M256,176.8c38.2,0,70,27,77.6,62.9h127c-9-104.5-96.6-186.4-203.3-186.4S63,135.3,54,239.7h124.4
			C186,203.8,217.9,176.8,256,176.8z"/>
		<path id="Shadow_Up" class="st3" d="M407.8,239.7h52.7c-7.7-90.2-74.3-163.7-161.1-182C359.7,89.5,402.7,158.4,407.8,239.7z"/>
	</g>
	<path id="Line" d="M257.3,53.3c106.8,0,194.4,81.9,203.2,186.3h-127c-7.6-35.9-39.4-62.9-77.6-62.9s-70,27-77.6,62.9H54
		C63,135.3,150.6,53.3,257.3,53.3z M299.7,239.7c1.9,5.1,2.9,10.6,2.9,16.3l0,0h0.1l0,0c0,5.8-1,11.2-2.9,16.3
		c-6.6,17.8-23.7,30.3-43.7,30.3s-37.1-12.7-43.7-30.3c-1.9-5.1-2.9-10.6-2.9-16.3l0,0h-0.1l0,0c0-5.8,1-11.2,2.9-16.3
		c6.6-17.8,23.7-30.3,43.7-30.3C276,209.3,293.1,222,299.7,239.7z M254.6,458.8c-106.8,0-194.4-81.9-203.2-186.3h127
		c7.6,35.9,39.4,62.9,77.6,62.9s70-27,77.6-62.9H458C449,376.7,361.4,458.8,254.6,458.8z M256,14.4C122.5,14.4,14.4,122.6,14.4,256
		S122.5,497.6,256,497.6S497.6,389.5,497.6,256S389.5,14.4,256,14.4z"/>
</g>
</svg>
