<svg id="Pokéball" xmlns="http://www.w3.org/2000/svg" viewBox="0 0 512 512"><defs><style>.cls-1{fill:#fff;}.cls-2{fill:#dfdfdf;}.cls-3{fill:#4e13bf;}.cls-4{fill:#270072;}</style></defs><g id="Pokéball-2" data-name="Pokéball"><g id="Colours"><path id="Down" class="cls-1" d="M256,335.27a79.35,79.35,0,0,1-77.57-62.92H51.4c9,104.4,96.56,186.32,203.23,186.32S449,376.75,457.86,272.35H333.52A79.25,79.25,0,0,1,256,335.27Z"/><path id="Shadow_Down" data-name="Shadow Down" class="cls-2" d="M301.3,453.38c84.66-19.85,149-92.31,156.56-181H407.79C402.78,352.85,360.55,421.06,301.3,453.38Z"/><path id="Center" class="cls-1" d="M302.72,256h0a49.15,49.15,0,0,0-3-16.35A46.68,46.68,0,0,0,209.28,256h.09a46.68,46.68,0,1,0,93.35,0Z"/><path id="Up" class="cls-3" d="M256.05,176.82a79.35,79.35,0,0,1,77.57,62.93h127c-9-104.5-96.56-186.42-203.32-186.42S63,135.25,54,239.65H178.48A79.27,79.27,0,0,1,256.05,176.82Z"/><path id="Shadow_Up" data-name="Shadow Up" class="cls-4" d="M407.79,239.65h52.72c-7.75-90.23-74.26-163.74-161.09-182C359.7,89.52,402.69,158.4,407.79,239.65Z"/></g><path id="Line" d="M257.28,53.33c106.76,0,194.35,81.92,203.23,186.32h-127a79.28,79.28,0,0,0-155.14,0H54C63,135.25,150.6,53.33,257.28,53.33ZM299.7,239.65A46.93,46.93,0,0,1,302.63,256h.09a46.68,46.68,0,1,1-93.35,0h-.09a46.69,46.69,0,0,1,90.42-16.35ZM254.63,458.76c-106.77,0-194.35-81.92-203.23-186.32h127a79.27,79.27,0,0,0,155.14,0H458C449,376.75,361.4,458.76,254.63,458.76ZM256,14.41C122.54,14.41,14.36,122.59,14.36,256S122.54,497.59,256,497.59,497.64,389.5,497.64,256,389.46,14.41,256,14.41Z"/></g></svg>